<svg id="Capa_1" enable-background="new 0 0 512 512" height="512" viewBox="0 0 512 512" width="512" xmlns="http://www.w3.org/2000/svg"><g><g><path d="m488.468 95.677h-464.936c-8.854 0-16.032 7.178-16.032 16.032v288.581c0 8.854 7.178 16.032 16.032 16.032h464.935c8.854 0 16.032-7.178 16.032-16.032v-288.58c.001-8.855-7.177-16.033-16.031-16.033z" fill="#ffe07d"/><path d="m7.5 256h497v80.161h-497z" fill="#5055a0"/><path d="m7.5 336.161v64.129c0 8.854 7.178 16.032 16.032 16.032h464.935c8.854 0 16.032-7.178 16.032-16.032v-64.129z" fill="#e5646e"/><path d="m7.5 256h24.048v80.161h-24.048z" fill="#3f3f8f"/><path d="m31.548 352.194v-16.032h-24.048v64.129c0 8.854 7.179 16.032 16.032 16.032h464.935c8.854 0 16.032-7.178 16.032-16.032v-8.016h-432.87c-22.1-.001-40.081-17.981-40.081-40.081z" fill="#db4655"/><path d="m31.548 256v-160.323h-8.016c-8.854 0-16.032 7.178-16.032 16.032v144.291z" fill="#ffd064"/></g><path d="m488.468 88.177h-464.936c-12.975 0-23.532 10.557-23.532 23.532v288.581c0 12.976 10.557 23.532 23.532 23.532h464.936c12.976 0 23.532-10.557 23.532-23.532v-288.581c0-12.975-10.557-23.532-23.532-23.532zm0 320.646h-464.936c-4.705 0-8.532-3.828-8.532-8.532v-56.629h425.375c4.142 0 7.5-3.358 7.5-7.5s-3.358-7.5-7.5-7.5h-425.375v-65.162h24.565c4.142 0 7.5-3.358 7.5-7.5s-3.358-7.5-7.5-7.5h-24.565v-136.791c0-4.705 3.828-8.532 8.532-8.532h464.936c4.705 0 8.532 3.828 8.532 8.532v136.791h-425.375c-4.142 0-7.5 3.358-7.5 7.5s3.358 7.5 7.5 7.5h425.375v65.161h-24.565c-4.142 0-7.5 3.358-7.5 7.5s3.358 7.5 7.5 7.5h24.565v56.629c0 4.705-3.828 8.533-8.532 8.533z"/></g></svg>